<?xml version="1.0" standalone="no"?>
<!DOCTYPE svg PUBLIC "-//W3C//DTD SVG 20010904//EN"
 "http://www.w3.org/TR/2001/REC-SVG-20010904/DTD/svg10.dtd">
<svg version="1.0" xmlns="http://www.w3.org/2000/svg"
 width="1620.000000pt" height="1200.000000pt" viewBox="0 0 1620.000000 1200.000000"
 preserveAspectRatio="xMidYMid meet">

<g transform="translate(0.000000,1200.000000) scale(0.100000,-0.100000)"
fill="#000000" stroke="none">
<path d="M0 6000 l0 -6000 8100 0 8100 0 0 6000 0 6000 -8100 0 -8100 0 0
-6000z m1665 1813 c136 -42 139 -45 830 -737 689 -689 691 -692 742 -838 39
-111 41 -193 5 -300 -16 -48 -44 -112 -63 -143 -23 -38 -233 -255 -669 -690
-349 -349 -651 -646 -670 -660 -51 -38 -147 -86 -205 -101 -68 -19 -200 -17
-266 2 -188 55 -344 220 -389 413 -29 123 6 297 81 409 18 26 218 234 446 463
373 376 413 420 413 449 0 29 -39 71 -400 432 -220 220 -420 428 -444 462 -76
106 -106 198 -106 321 0 150 50 266 166 383 80 80 178 134 276 151 67 12 188
4 253 -16z m-992 -1198 c179 -38 313 -145 387 -309 122 -269 10 -581 -255
-707 -89 -43 -157 -59 -249 -59 -227 0 -441 166 -511 396 -29 92 -31 164 -10
249 56 223 213 387 410 429 90 19 144 19 228 1z"/>
</g>
</svg>
