<svg width="191" height="48" viewBox="0 0 191 48" fill="none" xmlns="http://www.w3.org/2000/svg">
<path d="M180.845 28.605H176.894L175.552 32.3734H170.925L177.41 14.589H182.987L189.568 32.3734H184.581L182.923 27.3382C182.659 28.7339 180.351 28.605 180.845 28.605ZM182.23 25.2178L180.201 18.2608L177.952 25.2178H182.23Z" fill="#59595A"/>
<path d="M56.7408 28.2453C55.49 28.7553 53.9762 29.1633 52.4839 29.1633C49.1611 29.1633 46.783 27.0483 46.783 23.559C46.783 20.2469 48.8873 17.8044 52.1135 17.8044C53.681 17.8044 55.0982 18.2124 56.5636 19.0552L56.9287 15.2063C55.2914 14.6963 53.6005 14.2883 51.8666 14.2883C46.2408 14.2883 42.0859 17.3696 42.0859 23.559C42.0859 30.2852 47.3413 32.6794 51.8934 32.6794C54.2178 32.6794 55.6564 32.2982 56.9555 31.9654L56.7408 28.2453Z" fill="#59595A"/>
<path d="M0 16.296V16.9187L0.0590487 16.3121C0.0375764 16.3068 0.0214723 16.3014 0 16.296ZM0 31.6863V33.1035C0.0268404 33.0981 0.0536808 33.0874 0.0805212 33.082L0 31.6863Z" fill="#DA291C"/>
<path d="M81.1116 14.5891H76.5595V32.3736H81.1116V14.5891Z" fill="#59595A"/>
<path d="M84.2572 32.3736H95.8522V28.8575H88.804V14.5891H84.2572V32.3736Z" fill="#59595A"/>
<path d="M101.703 23.4786C101.703 20.3973 102.804 17.7992 105.563 17.7992C108.328 17.7992 109.428 20.3973 109.428 23.4786C109.428 26.4149 108.328 29.1634 105.563 29.1634C102.804 29.1634 101.703 26.4149 101.703 23.4786ZM107.887 34.9019H113.025L109.772 31.7884C112.633 30.4356 114.125 27.4832 114.125 23.4786C114.125 17.7777 111.189 14.2831 105.563 14.2831C99.9427 14.2831 97.0063 17.7723 97.0063 23.4786C97.0063 29.1366 99.991 32.6795 105.563 32.6795H105.81L107.887 34.9019Z" fill="#59595A"/>
<path d="M131.228 14.5891H126.681V24.8314C126.681 27.1773 126.069 29.1634 123.745 29.1634C121.42 29.1634 120.809 27.1773 120.809 24.8314V14.5891H116.262V25.6205C116.262 30.4894 119.295 32.6795 123.745 32.6795C128.195 32.6795 131.228 30.4894 131.228 25.6205V14.5891Z" fill="#59595A"/>
<path d="M138.754 14.5891H134.202V32.3736H138.754V14.5891Z" fill="#59595A"/>
<path d="M141.975 32.3736H146.156L146.012 20.2202H146.06L152.029 32.3736H157.676V14.5891H153.521L153.591 26.6673H153.543L147.772 14.5891H141.975V32.3736Z" fill="#59595A"/>
<path d="M163.7 32.3736H168.252V18.1052H172.455V14.5891H159.491V18.1052H163.7V32.3736Z" fill="#59595A"/>
<path d="M68.7646 23.4946L68.7861 32.3788H73.3329V14.5944H68.7861V21.3957H63.4073V14.5944H58.8552V32.3788H63.4073V24.7615H66.7462C66.2524 24.7561 68.507 24.885 68.7646 23.4946Z" fill="#59595A"/>
<path d="M36.5942 12.0822L19.8405 0.358319C19.1694 -0.11944 18.2676 -0.11944 17.602 0.358319L0.885781 12.0876C0.381182 12.4472 0.0859375 13.027 0.0859375 13.6497V35.3582C0.0859375 36.421 0.94483 37.2799 2.00771 37.2799H12.1748C13.2377 37.2799 14.0751 36.421 14.0751 35.3582C14.0751 34.2953 13.2377 33.4364 12.1748 33.4364H3.92411V14.632L18.7185 4.28774L33.5505 14.632V33.4364H20.6618V30.9402L25.7829 28.181C26.3036 27.8053 26.6364 27.2202 26.6364 26.5653L26.6418 21.0415H24.5644H24.559L24.5644 15.974C24.5644 15.2333 23.9685 14.6428 23.2331 14.6428C22.4923 14.6428 21.8696 15.2333 21.8696 15.974V21.0415H15.605L15.6104 15.974C15.6104 15.2333 15.0146 14.6428 14.2791 14.6428C13.5383 14.6428 12.9156 15.2333 12.9156 15.974V21.0415H10.8382V26.4633L10.8543 26.5653C10.8543 27.2202 11.1871 27.8053 11.7078 28.181L16.8182 30.9564V35.3582C16.8182 36.421 17.6771 37.2799 18.74 37.2799H35.0697C36.1326 37.2799 37.3941 36.421 37.3941 35.3582V13.6497C37.3941 13.027 37.0935 12.4472 36.5942 12.0822Z" fill="#DA291C"/>
<path d="M118.383 40.372C119.011 40.372 119.918 40.5438 120.546 40.8497L121.169 36.9471H123.107L121.373 47.8766H119.768L119.537 47.1304C119.016 47.5008 118.13 47.9571 117.25 47.9571C115.462 47.9571 114.985 46.0407 115.355 43.9042C115.704 41.8589 116.332 40.372 118.383 40.372ZM117.964 46.293C118.694 46.293 119.295 46.1051 119.752 45.8367L120.331 42.1757C119.859 41.977 119.322 41.8965 118.646 41.8965C118.055 41.8965 117.631 42.2454 117.32 44.135C117.057 45.7454 117.32 46.293 117.964 46.293Z" fill="#DA291C"/>
<path d="M123.971 40.4793H125.92L124.749 47.8712H122.801L123.971 40.4793ZM124.255 38.155C124.282 37.9456 124.422 37.806 124.647 37.806H126.107C126.317 37.806 126.392 37.9617 126.365 38.155L126.177 39.3896C126.15 39.599 126.005 39.7117 125.807 39.7117H124.347C124.153 39.7117 124.041 39.5882 124.068 39.3896L124.255 38.155Z" fill="#DA291C"/>
<path d="M126.601 46.3574H130.085C130.214 46.3574 130.579 46.3413 130.654 45.8903L130.719 45.5146C130.772 45.2032 130.692 45.0315 130.295 45.0315H128.641C127.332 45.0315 126.591 44.3068 126.811 42.895L126.924 42.224C127.111 41.0591 127.729 40.3881 129.162 40.3881C130.585 40.3881 132.522 40.4364 133.043 40.7638L132.85 41.9931H129.506C129.006 41.9931 128.894 42.24 128.851 42.5031L128.792 42.8681C128.7 43.4103 129.022 43.3459 129.291 43.3459H130.998C132.41 43.3459 132.882 44.3336 132.71 45.4072L132.587 46.2554C132.351 47.7745 131.309 47.9785 130.466 47.9785C129.065 47.9785 126.87 47.9141 126.408 47.5759L126.601 46.3574Z" fill="#DA291C"/>
<path d="M133.95 40.8713L135.212 40.4687L135.867 38.4073H137.488L137.16 40.4687H138.814L138.577 41.961H136.924L136.452 44.9349C136.275 46.0998 136.473 46.2501 136.87 46.4004C136.87 46.4004 137.633 46.6742 137.692 46.6742L137.504 47.8927H136.156C134.938 47.8927 134.16 47.1412 134.455 45.2463L134.97 41.9664H133.773L133.95 40.8713Z" fill="#DA291C"/>
<path d="M140.032 40.4793H141.675L141.831 41.4134C142.426 40.9195 143.199 40.4042 144.117 40.4042C144.439 40.4042 144.745 40.4149 144.928 40.4901L144.633 42.3743C144.434 42.3582 143.989 42.3367 143.57 42.3367C142.765 42.3367 142.158 42.4709 141.562 43.158L140.816 47.8712H138.867L140.032 40.4793Z" fill="#DA291C"/>
<path d="M146.077 40.4793H148.025L146.855 47.8712H144.906L146.077 40.4793ZM146.361 38.155C146.388 37.9456 146.528 37.806 146.753 37.806H148.213C148.423 37.806 148.498 37.9617 148.471 38.155L148.283 39.3896C148.256 39.599 148.111 39.7117 147.913 39.7117H146.452C146.259 39.7117 146.146 39.5882 146.173 39.3896L146.361 38.155Z" fill="#DA291C"/>
<path d="M150.097 36.9471H152.035L151.423 40.8497C152.148 40.5438 153.071 40.372 153.699 40.372C155.793 40.372 155.905 42.326 155.551 44.5215C155.181 46.76 154.472 48.0215 152.54 47.9624C151.659 47.9356 150.843 47.5062 150.441 47.1358L149.974 47.8819H148.369L150.097 36.9471ZM152.303 46.293C152.996 46.293 153.361 45.7615 153.613 44.135C153.865 42.4977 153.764 41.8965 152.99 41.8965C152.314 41.8965 151.772 41.977 151.23 42.1757L150.645 45.8367C151.015 46.1051 151.568 46.293 152.303 46.293Z" fill="#DA291C"/>
<path d="M157.452 40.4794H159.4L158.617 45.4341C158.488 46.234 158.788 46.4326 159.277 46.4326C160.061 46.4326 160.522 46.2286 161.166 45.7938L162.004 40.4847H163.952L162.777 47.8766H161.209L160.957 47.0875C160.216 47.6028 159.593 48.0001 158.466 48.0001C156.743 48.0001 156.442 46.8566 156.673 45.4019L157.452 40.4794Z" fill="#DA291C"/>
<path d="M167.796 40.3612C168.52 40.3612 170.109 40.4954 171.129 40.8121L170.941 42.0253C170.941 42.0253 169.626 41.9287 168.386 41.9287C167.495 41.9287 167.087 42.0038 166.701 44.2101C166.384 46.0782 166.717 46.3896 167.678 46.3896C168.961 46.3896 170.372 46.2607 170.372 46.2607L170.179 47.4846C169.09 47.8819 168.193 47.9731 166.663 47.9517C165.267 47.9356 164.296 46.7922 164.768 43.9417C165.3 40.7638 166.427 40.3612 167.796 40.3612Z" fill="#DA291C"/>
<path d="M172.574 40.4793H174.522L173.352 47.8712H171.403L172.574 40.4793ZM172.858 38.155C172.885 37.9456 173.025 37.806 173.25 37.806H174.71C174.92 37.806 174.995 37.9617 174.968 38.155L174.78 39.3896C174.753 39.599 174.608 39.7117 174.41 39.7117H172.949C172.756 39.7117 172.643 39.5882 172.67 39.3896L172.858 38.155Z" fill="#DA291C"/>
<path d="M179.273 40.3881C181.748 40.3881 182.499 41.6872 182.054 44.4732C181.608 47.2163 180.722 47.941 178.167 47.941C175.66 47.941 174.893 46.7332 175.311 44.0867C175.778 41.0698 176.777 40.3881 179.273 40.3881ZM178.344 46.3789C179.423 46.3789 179.778 46.2286 180.1 44.2853C180.422 42.3313 180.207 41.961 179.042 41.961C177.888 41.961 177.582 42.2616 177.249 44.2853C176.943 46.1641 177.308 46.3789 178.344 46.3789ZM180.304 37.6235H182.011L180.003 39.5507H178.736L180.304 37.6235Z" fill="#DA291C"/>
<path d="M184.066 40.4793H185.634L185.892 41.2684C186.6 40.8121 187.26 40.3558 188.388 40.3558C190.111 40.3558 190.406 41.5422 190.181 42.954L189.397 47.8765H187.448L188.232 42.9271C188.35 42.1917 188.066 41.9287 187.577 41.9287C186.793 41.9287 186.332 42.1327 185.688 42.5675L184.845 47.8765H182.896L184.066 40.4793Z" fill="#DA291C"/>
</svg>
